<?xml version="1.0" encoding="UTF-8" standalone="no"?><!DOCTYPE svg PUBLIC "-//W3C//DTD SVG 1.1//EN" "http://www.w3.org/Graphics/SVG/1.1/DTD/svg11.dtd"><svg width="100%" height="100%" viewBox="0 0 24 24" version="1.1" xmlns="http://www.w3.org/2000/svg" xmlns:xlink="http://www.w3.org/1999/xlink" xml:space="preserve" xmlns:serif="http://www.serif.com/" style="fill-rule:evenodd;clip-rule:evenodd;stroke-linejoin:round;stroke-miterlimit:2;"><path d="M9.734,2.699c1.495,-0.307 3.037,-0.307 4.532,-0c0.647,0.132 1.145,0.65 1.252,1.302l0.055,0.329c0.092,0.56 0.166,1.123 0.221,1.688c0.007,0.074 -0.02,0.147 -0.072,0.2l-0.923,0.922c-0.154,0.154 -0.419,0.051 -0.433,-0.166c-0.051,-0.803 -0.142,-1.604 -0.273,-2.401l-0.055,-0.329c-0.006,-0.038 -0.035,-0.068 -0.073,-0.076c-1.297,-0.265 -2.634,-0.265 -3.93,0c-0.038,0.008 -0.067,0.038 -0.074,0.076l-0.054,0.329c-0.403,2.446 -0.427,4.937 -0.072,7.388c0.012,0.079 -0.015,0.158 -0.071,0.214l-0.918,0.918c-0.125,0.125 -0.336,0.081 -0.365,-0.093l-0.054,-0.329c-0.455,-2.762 -0.455,-5.58 0,-8.341l0.054,-0.329c0.108,-0.652 0.606,-1.17 1.253,-1.302Z" style="fill-rule:nonzero;"/><path d="M14.267,14.308c-1.496,0.306 -3.038,0.306 -4.533,0c-0.647,-0.132 -1.145,-0.65 -1.252,-1.302l-0.054,-0.329c-0.093,-0.56 -0.166,-1.123 -0.221,-1.688c-0.007,-0.074 0.019,-0.147 0.072,-0.2l0.922,-0.922c0.154,-0.154 0.42,-0.051 0.434,0.166c0.05,0.803 0.142,1.604 0.273,2.4l0.054,0.329c0.006,0.039 0.035,0.069 0.073,0.077c1.297,0.265 2.634,0.265 3.931,-0c0.038,-0.008 0.067,-0.038 0.073,-0.077l0.054,-0.329c0.403,-2.445 0.427,-4.936 0.072,-7.387c-0.011,-0.079 0.015,-0.158 0.071,-0.214l0.918,-0.918c0.125,-0.125 0.336,-0.081 0.365,0.093l0.054,0.329c0.455,2.762 0.455,5.58 0,8.341l-0.054,0.329c-0.107,0.652 -0.605,1.17 -1.252,1.302Z" style="fill-rule:nonzero;"/><path d="M12.474,16.975c1.226,-0.018 2.451,-0.105 3.67,-0.26c0.86,-0.11 1.541,-0.782 1.663,-1.641l0.45,-3.179c0.059,-0.41 0.438,-0.696 0.848,-0.638c0.41,0.059 0.696,0.438 0.638,0.848l-0.451,3.179c-0.216,1.525 -1.423,2.718 -2.949,2.917l0.001,0.001c-0.003,-0 -0.005,0 -0.008,0c-1.19,0.153 -2.386,0.242 -3.583,0.268l-0,4.03c-0,0.414 -0.336,0.75 -0.75,0.75l-0.003,-0c-0.414,-0 -0.75,-0.336 -0.75,-0.75l0,-4.03c-1.197,-0.026 -2.394,-0.115 -3.584,-0.268c-0.002,0 -0.005,-0 -0.007,-0l0,-0.001c-1.526,-0.199 -2.732,-1.392 -2.948,-2.917l-0.451,-3.179c-0.058,-0.41 0.227,-0.79 0.637,-0.848c0.411,-0.058 0.79,0.228 0.848,0.638l0.451,3.179c0.121,0.859 0.802,1.531 1.663,1.641c1.218,0.155 2.443,0.242 3.669,0.26l0.105,0.001l0.017,0l0.089,0.001l0.028,0l0.077,0.001l0.04,-0l0.065,0l0.052,0l0.053,0l0.065,-0l0.04,-0l0.077,-0.001l0.028,0l0.089,-0.001l0.016,0l0.105,-0.001Z"/><path d="M6.193,15.074c0.018,0.125 0.047,0.245 0.087,0.361c0.034,0.098 0.015,0.209 -0.058,0.282l-0.762,0.763c-0.112,0.111 -0.299,0.093 -0.374,-0.046c-0.189,-0.351 -0.32,-0.738 -0.378,-1.15l-0.451,-3.179c-0.058,-0.41 0.228,-0.79 0.638,-0.848c0.41,-0.058 0.789,0.228 0.848,0.638l0.45,3.179Z" style="fill-rule:nonzero;"/></svg>