<?xml version="1.0" encoding="UTF-8" standalone="no"?><!DOCTYPE svg PUBLIC "-//W3C//DTD SVG 1.1//EN" "http://www.w3.org/Graphics/SVG/1.1/DTD/svg11.dtd"><svg width="100%" height="100%" viewBox="0 0 512 512" version="1.1" xmlns="http://www.w3.org/2000/svg" xmlns:xlink="http://www.w3.org/1999/xlink" xml:space="preserve" xmlns:serif="http://www.serif.com/" style="fill-rule:evenodd;clip-rule:evenodd;stroke-linejoin:round;stroke-miterlimit:2;"><path d="M402.804,126.854c-7.409,0 -13.417,6.008 -13.417,13.417c-0,22.936 -18.658,41.594 -41.594,41.594c-22.936,-0 -41.594,-18.658 -41.594,-41.594c0,-7.409 -6.008,-13.417 -13.417,-13.417c-7.409,0 -13.416,6.008 -13.416,13.417c-0,37.73 30.697,68.428 68.427,68.428c37.73,-0 68.427,-30.698 68.427,-68.428c0,-7.407 -6.007,-13.417 -13.416,-13.417Z" style="fill-rule:nonzero;"/><path d="M219.219,126.854c-7.409,0 -13.417,6.008 -13.417,13.417c-0,22.936 -18.658,41.594 -41.594,41.594c-22.936,-0 -41.594,-18.658 -41.594,-41.594c0,-7.409 -6.008,-13.417 -13.417,-13.417c-7.409,0 -13.416,6.008 -13.416,13.417c-0,37.73 30.697,68.428 68.427,68.428c37.73,-0 68.427,-30.698 68.427,-68.428c0,-7.407 -6.007,-13.417 -13.416,-13.417Z" style="fill-rule:nonzero;"/><path d="M424.686,301.675l-90.219,-0c-7.665,-0 -13.88,6.215 -13.88,13.879c-0,7.665 6.215,13.88 13.88,13.88l90.219,0c7.665,0 13.88,-6.215 13.88,-13.88c-0,-7.664 -6.215,-13.879 -13.88,-13.879Z" style="fill-rule:nonzero;"/><path d="M292.826,301.675l-15.268,-0c-7.664,-0 -13.879,6.215 -13.879,13.879c-0,7.665 6.215,13.88 13.879,13.88l15.268,0c7.665,0 13.88,-6.215 13.88,-13.88c-0,-7.664 -6.215,-13.879 -13.88,-13.879Z" style="fill-rule:nonzero;"/><path d="M501.801,21.928l-491.602,0c-5.632,0 -10.199,4.567 -10.199,10.199l0,358.898c0,5.632 4.567,10.199 10.199,10.199l187.665,0l0,68.449l-34.677,0c-5.632,0 -10.199,4.567 -10.199,10.199c0,5.632 4.567,10.199 10.199,10.199l185.625,0c5.632,0 10.199,-4.567 10.199,-10.199c0,-5.632 -4.567,-10.199 -10.199,-10.199l-34.677,0l0,-68.449l187.665,0c5.632,0 10.199,-4.567 10.199,-10.199l0,-358.898c0.001,-5.632 -4.566,-10.199 -10.198,-10.199Zm-208.064,447.745l-75.474,0l0,-68.449l75.474,0l0,68.449Zm-260.717,-413.333l445.959,0l-0,310.472l-445.959,-0l0,-310.472Z" style="fill-rule:nonzero;"/></svg>